<?xml version="1.0" standalone="no"?>
<!DOCTYPE svg PUBLIC "-//W3C//DTD SVG 20010904//EN"
 "http://www.w3.org/TR/2001/REC-SVG-20010904/DTD/svg10.dtd">
<svg version="1.0" xmlns="http://www.w3.org/2000/svg"
 width="2160.000000pt" height="2160.000000pt" viewBox="0 0 2160.000000 2160.000000"
 preserveAspectRatio="xMidYMid meet">

<g transform="translate(0.000000,2160.000000) scale(0.100000,-0.100000)"
fill="#000000" stroke="none">
<path d="M10434 21590 c-1887 -63 -3721 -618 -5324 -1613 -742 -460 -1379
-972 -2020 -1623 -360 -366 -625 -674 -929 -1079 -1209 -1610 -1933 -3494
-2115 -5505 -55 -604 -55 -1335 0 -1940 290 -3197 1961 -6066 4608 -7909 1042
-726 2260 -1280 3496 -1591 1509 -379 3104 -429 4635 -144 1797 334 3490 1127
4895 2293 378 314 921 840 1219 1181 1277 1462 2113 3149 2486 5015 145 727
207 1359 207 2125 0 521 -26 926 -88 1403 -398 3066 -2105 5820 -4685 7559
-390 263 -758 476 -1209 701 -871 435 -1732 731 -2685 922 -598 120 -1160 184
-1800 205 -324 11 -357 11 -691 0z m686 -3490 c879 -42 1692 -223 2495 -555
188 -77 629 -294 800 -393 814 -469 1517 -1070 2094 -1792 349 -436 618 -863
870 -1380 936 -1922 971 -4199 95 -6157 -469 -1049 -1189 -1984 -2079 -2703
-1593 -1285 -3616 -1841 -5645 -1550 -2036 292 -3861 1442 -5017 3161 -1003
1491 -1417 3300 -1167 5093 319 2283 1709 4283 3752 5401 1143 625 2497 937
3802 875z"/>
<path d="M10545 17269 c-1175 -43 -2309 -406 -3300 -1057 -571 -374 -1103
-862 -1526 -1397 -1073 -1358 -1554 -3070 -1348 -4795 107 -898 402 -1762 867
-2540 389 -651 917 -1257 1510 -1733 1410 -1131 3206 -1616 5010 -1352 922
135 1805 473 2597 993 733 480 1362 1109 1850 1847 617 933 972 1982 1055
3120 14 193 14 685 0 885 -101 1436 -658 2770 -1605 3845 -113 129 -441 456
-570 570 -1253 1104 -2861 1676 -4540 1614z m2650 -3764 c351 -45 704 -151
1010 -302 101 -50 275 -147 275 -153 0 -3 -30 -20 -66 -39 -191 -99 -407 -297
-596 -546 -62 -83 -199 -288 -368 -555 -270 -425 -386 -578 -599 -791 -268
-269 -506 -414 -797 -489 -431 -111 -926 -26 -1540 265 -76 36 -140 67 -142
69 -2 2 13 37 34 77 197 393 497 780 823 1062 459 396 977 654 1635 813 l141
34 -95 -6 c-753 -44 -1470 -331 -2030 -812 -544 -467 -908 -1096 -1035 -1786
-157 -856 25 -1927 460 -2707 74 -133 216 -342 300 -441 36 -43 65 -81 65 -84
0 -8 -139 3 -326 26 -572 73 -1160 277 -1667 580 -160 95 -333 214 -329 226 1
5 27 81 57 169 91 268 145 504 182 805 22 183 25 700 5 890 -64 596 -225 1158
-497 1727 -174 364 -437 786 -686 1099 -27 34 -49 64 -49 68 0 8 214 73 351
107 247 61 352 73 624 74 267 0 318 -5 510 -55 433 -112 817 -385 1156 -822
l67 -88 73 103 c188 265 450 553 674 742 524 442 1130 698 1785 755 140 12
446 4 595 -15z"/>
</g>
</svg>
