<?xml version="1.0" standalone="no"?>
<!DOCTYPE svg PUBLIC "-//W3C//DTD SVG 20010904//EN"
 "http://www.w3.org/TR/2001/REC-SVG-20010904/DTD/svg10.dtd">
<svg version="1.0" xmlns="http://www.w3.org/2000/svg"
 width="2160.000000pt" height="2160.000000pt" viewBox="0 0 2160.000000 2160.000000"
 preserveAspectRatio="xMidYMid meet">

<g transform="translate(0.000000,2160.000000) scale(0.100000,-0.100000)"
fill="#000000" stroke="none">
<path d="M10341 21589 c-3300 -143 -6326 -1766 -8276 -4439 -2306 -3160 -2711
-7353 -1055 -10910 665 -1430 1662 -2723 2885 -3740 1473 -1227 3241 -2036
5130 -2349 417 -70 849 -114 1311 -136 l141 -7 5551 5157 c3052 2836 5553
5163 5556 5172 11 27 7 837 -4 1038 -96 1710 -571 3328 -1403 4780 -1464 2556
-3904 4408 -6745 5120 -1001 250 -2066 359 -3091 314z m769 -3494 c395 -10
848 -68 1285 -165 2050 -456 3818 -1791 4828 -3645 1032 -1895 1168 -4186 367
-6190 -852 -2133 -2650 -3740 -4860 -4345 -1087 -298 -2251 -337 -3368 -115
-2108 421 -3931 1762 -4973 3661 -508 926 -806 1951 -879 3029 -14 206 -14
745 0 945 71 1018 326 1951 772 2828 507 997 1223 1853 2118 2532 1087 823
2358 1315 3740 1446 176 16 589 32 710 27 36 -1 153 -5 260 -8z"/>
<path d="M10470 17269 c-1961 -101 -3765 -1080 -4916 -2670 -934 -1288 -1358
-2867 -1198 -4454 86 -853 347 -1699 754 -2440 241 -440 514 -828 847 -1205
131 -148 427 -443 568 -566 922 -805 2035 -1331 3225 -1523 375 -61 645 -82
1045 -82 277 0 478 9 685 32 1323 144 2531 665 3535 1525 193 165 535 507 699
699 963 1127 1505 2516 1555 3982 25 733 -61 1406 -269 2108 -169 570 -472
1211 -810 1715 -443 662 -993 1228 -1643 1693 -1170 837 -2626 1261 -4077
1186z m2724 -3765 c241 -29 496 -92 731 -181 126 -47 426 -191 509 -244 l49
-31 -74 -40 c-225 -122 -438 -326 -649 -623 -43 -61 -154 -229 -247 -375 -356
-559 -463 -701 -694 -925 -224 -217 -422 -343 -668 -425 -173 -58 -276 -73
-481 -74 -137 0 -203 5 -303 23 -262 46 -511 128 -819 271 -94 44 -173 82
-176 84 -2 3 24 58 58 123 503 950 1353 1583 2460 1833 137 31 123 36 -65 19
-1037 -89 -1972 -628 -2516 -1451 -272 -411 -426 -825 -494 -1328 -22 -160
-31 -579 -16 -765 64 -806 325 -1556 729 -2098 46 -62 100 -129 120 -149 l36
-38 -39 0 c-22 0 -103 7 -180 15 -632 67 -1247 271 -1785 593 -162 96 -336
216 -333 228 2 5 25 74 53 154 89 254 149 517 187 820 25 204 25 732 0 940
-118 969 -485 1856 -1113 2693 -80 107 -110 154 -101 159 23 13 319 95 419
117 253 55 569 76 778 52 449 -52 830 -243 1180 -591 94 -93 255 -281 301
-350 9 -14 19 -23 21 -20 3 3 32 46 66 95 172 253 503 612 737 799 531 423
1109 656 1750 706 141 11 413 3 569 -16z"/>
</g>
</svg>
